<?xml version="1.0" encoding="UTF-8"?>
<svg version="1.1" viewBox="0 0 540 540" xmlns="http://www.w3.org/2000/svg" xmlns:cc="http://creativecommons.org/ns#" xmlns:dc="http://purl.org/dc/elements/1.1/" xmlns:rdf="http://www.w3.org/1999/02/22-rdf-syntax-ns#">
 <metadata>
  <rdf:RDF>
   <cc:Work rdf:about="">
    <dc:format>image/svg+xml</dc:format>
    <dc:type rdf:resource="http://purl.org/dc/dcmitype/StillImage"/>
    <dc:title/>
   </cc:Work>
  </rdf:RDF>
 </metadata>
 <path d="m270 0a270 270 0 0 0-270 270 270 270 0 0 0 270 270 270 270 0 0 0 270-270 270 270 0 0 0-270-270zm0 154.78a115.22 115.22 0 0 1 115.22 115.22 115.22 115.22 0 0 1-115.22 115.22 115.22 115.22 0 0 1-115.22-115.22 115.22 115.22 0 0 1 115.22-115.22z" fill="#333"/>
 <path d="m270 120a150 150 0 0 0-150 150 150 150 0 0 0 150 150 150 150 0 0 0 150-150 150 150 0 0 0-150-150zm0 34.777a115.22 115.22 0 0 1 115.22 115.22 115.22 115.22 0 0 1-115.22 115.22 115.22 115.22 0 0 1-115.22-115.22 115.22 115.22 0 0 1 115.22-115.22z" fill="#a8a8a8"/>
 <path d="m270 145a125 125 0 0 0-125 125 125 125 0 0 0 125 125 125 125 0 0 0 125-125 125 125 0 0 0-125-125zm-9 17.939v63.02a45 45 0 0 0-9.5996 3.127l-37.021-50.955a107.5 107.5 0 0 1 46.621-15.191zm18 0.01172a107.5 107.5 0 0 1 46.602 15.201l-36.998 50.922a45 45 0 0 0-9.6035-3.1621v-62.961zm61.209 25.719a107.5 107.5 0 0 1 28.787 39.699l-59.9 19.463a45 45 0 0 0-5.9297-8.1777l37.043-50.984zm-140.38 0.0625 37.004 50.932a45 45 0 0 0-5.9609 8.1621l-59.963-19.484a107.5 107.5 0 0 1 28.92-39.609zm70.168 51.268a30 30 0 0 1 30 30 30 30 0 0 1-30 30 30 30 0 0 1-30-30 30 30 0 0 1 30-30zm-104.55 5.4922 59.863 19.451a45 45 0 0 0-0.31055 5.0566 45 45 0 0 0 0.33984 5.0469l-59.877 19.455a107.5 107.5 0 0 1-2.9629-24.502 107.5 107.5 0 0 1 2.9473-24.508zm209.09 0.0039a107.5 107.5 0 0 1 2.9629 24.504 107.5 107.5 0 0 1-2.9473 24.51l-59.863-19.451a45 45 0 0 0 0.31055-5.0586 45 45 0 0 0-0.33984-5.0488l59.877-19.455zm-143.63 46.67a45 45 0 0 0 5.9258 8.1719l-37.043 50.986a107.5 107.5 0 0 1-28.781-39.695l59.898-19.463zm78.221 0.00976 59.965 19.484a107.5 107.5 0 0 1-28.918 39.607l-37.006-50.932a45 45 0 0 0 5.959-8.1602zm-20.521 18.738 37.021 50.955a107.5 107.5 0 0 1-46.623 15.191v-63.02a45 45 0 0 0 9.6016-3.127zm-37.215 0.00782a45 45 0 0 0 9.6133 3.166v62.961a107.5 107.5 0 0 1-46.609-15.205l36.996-50.922z" fill="#7f7f7f"/>
 <g fill="#078cd1">
  <path d="m389.55 428.21 17.58-14.28q7.94-5.73 16.55 7.27t0.77 20.05l-17.13 13.89-4.37-6.56 15.12-12.29a3.63 3.63 0 0 0 1.51-3.21 26.47 26.47 0 0 0-6.09-10.43 2.75 2.75 0 0 0-3.31-0.44l-16.06 13zm9.72 31.52-8 4.95-14.23-29 8.15-5.06zm-26.32-20.87 10.5 30.7-19.85 9.09q-8.5 4.11-12.39-5.62l-7.15-20.93 7.78-3.56 6.44 19.24c0.51 2.05 1.62 2.62 3.32 1.69l10.81-5-7.53-22zm-55.57 54-1.33-9 16-4-1.58-10.86q-0.67-2.82-3.65-2.38l-18.95 4.72-1.37-9 21.45-5.34q10.31-2 11.87 9.45l1.6 11.1 2.55-0.68 1.3 9zm-47.75 4.47 1.32-32.21 21.65-1.29q9.36-0.76 9.44 9.65l-0.88 22-8.49 0.5 1-20.12c0.25-2.09-0.58-3-2.48-2.75l-11.78 0.7-0.93 23zm-17.33-15.12-11.73-1.48a2.84 2.84 0 0 0-3.41 2.2q-0.7 2.49 2.08 3.28l11.82 1.47zm6.65 14.54-22.12-2.75q-9.81-2.91-8.17-12a13.08 13.08 0 0 1 6.65-10l-3.15-11 10.63 1.33 3.08 10.58 8.45 1.05 2.21-9.81 9.57 1.17zm-47-19.28 1.38-3.15-13.6-4.27-1.09 2.48q-1.77 3.33 0.82 4.61l8.24 2.55q3.33 0.95 4.25-2.22zm16.88-16.91-8.62 20.21q-4.39 9-14.44 6.28l-10.38-3.28q-8.82-3.43-5.42-12.4l8.68-20.32 8.14 2.55-3.86 9 13.6 4.33 3.85-9.06zm-77.24 2.81 5.05-7.61 14.53 7.73 6.09-9.08a2.87 2.87 0 0 0-1.12-4.2l-17.19-9.21 5-7.59 19.54 10.37q9 5.38 2.5 15l-6.24 9.31 2.35 1.2-5.15 7.56zm-5.73-29.75a3.4 3.4 0 0 0-0.55-3.74l-6.94-5.54a3.74 3.74 0 0 0-3.75-0.4q-1.66 0.32-5.07 3.89t-3.41 5.32a4.41 4.41 0 0 0 1.56 3.34l5.33 4.28a4.72 4.72 0 0 0 5.07 0.39q1.42-0.45 4.48-3.5c2.04-2.08 3.14-3.43 3.28-4.08zm-4.52-18 11.85 9.51q7.94 6.31-3.64 18-11.59 11.91-20 5.24l-9.7-7.83q-8.9-6.84 2.6-18.34 11.07-12.61 18.89-6.58z"/>
  <path d="m400.87 87.207-10.629 17.012a205 205 0 0 1 84.76 165.78 205 205 0 0 1-34.215 113.16l15.842 12.377a225 225 0 0 0 38.373-125.53 225 225 0 0 0-94.131-182.79z"/>
  <path d="m139.11 87.334a225 225 0 0 0-94.113 182.67 225 225 0 0 0 38.65 125.74l16.982-10.59a205 205 0 0 1-35.633-115.15 205 205 0 0 1 84.719-165.69z"/>
  <path d="m251.81 89.829c2.4362-1.1035 3.9774-3.5574 3.9774-6.4053 0-3.881-3.0523-7.4155-8.2514-7.4155h-24.54v21.559h11.926v-6.9561h3.8996l3.5926 6.9561h13.378zm-10.083-4.44h-6.8046v-4.5634l6.8046 0.0228a2.2703 2.2703 0 1 1 0 4.5406zm21.545 12.178h26.3v-4.8165h-14.375v-3.1726h14.375v-5.1981h-14.375v-3.1726h14.375v-5.1992h-26.3zm46.356-21.559h-11.927v21.559h24.006v-4.8165h-12.078zm28.107 0h-11.925v21.559h24.004v-4.8165h-12.08zm23.654-19.673h-186.38v41.135h20.641v-25.841l165.74 4e-3a7.6499 7.6499 0 1 0 1e-3 -15.298zm-22.896 10.082h-142.85v-4.8787l142.85 0.0135a2.4331 2.4331 0 1 1 0 4.8652zm-135.99 31.15h11.926v-21.559h-11.926zm152.28 0h11.927v-21.559h-11.927z"/>
 </g>
</svg>
