<?xml version="1.0" encoding="UTF-8" standalone="no"?>
<svg
   xmlns:dc="http://purl.org/dc/elements/1.1/"
   xmlns:cc="http://creativecommons.org/ns#"
   xmlns:rdf="http://www.w3.org/1999/02/22-rdf-syntax-ns#"
   xmlns:svg="http://www.w3.org/2000/svg"
   xmlns="http://www.w3.org/2000/svg"
   xmlns:sodipodi="http://sodipodi.sourceforge.net/DTD/sodipodi-0.dtd"
   xmlns:inkscape="http://www.inkscape.org/namespaces/inkscape"
   version="1.1"
   viewBox="0 0 540 540"
   id="svg879"
   sodipodi:docname="f1 porple.svg"
   inkscape:version="1.0.2-2 (e86c870879, 2021-01-15)">
  <defs
     id="defs883" />
  <sodipodi:namedview
     pagecolor="#ffffff"
     bordercolor="#666666"
     borderopacity="1"
     objecttolerance="10"
     gridtolerance="10"
     guidetolerance="10"
     inkscape:pageopacity="0"
     inkscape:pageshadow="2"
     inkscape:window-width="1366"
     inkscape:window-height="705"
     id="namedview881"
     showgrid="false"
     inkscape:zoom="0.9962963"
     inkscape:cx="270"
     inkscape:cy="270"
     inkscape:window-x="-8"
     inkscape:window-y="-8"
     inkscape:window-maximized="1"
     inkscape:current-layer="svg879" />
  <metadata
     id="metadata859">
    <rdf:RDF>
      <cc:Work
         rdf:about="">
        <dc:format>image/svg+xml</dc:format>
        <dc:type
           rdf:resource="http://purl.org/dc/dcmitype/StillImage" />
        <dc:title>Mesa de trabajo 1</dc:title>
      </cc:Work>
    </rdf:RDF>
  </metadata>
  <title
     id="title861">Mesa de trabajo 1</title>
  <path
     d="m270 0a270 270 0 0 0-270 270 270 270 0 0 0 270 270 270 270 0 0 0 270-270 270 270 0 0 0-270-270zm0 154.78a115.22 115.22 0 0 1 115.22 115.22 115.22 115.22 0 0 1-115.22 115.22 115.22 115.22 0 0 1-115.22-115.22 115.22 115.22 0 0 1 115.22-115.22z"
     fill="#282828"
     id="path863" />
  <path
     d="m269.78 60.796a210 210 0 0 0-210 210 210 210 0 0 0 210 210 210 210 0 0 0 210-210 210 210 0 0 0-210-210zm0 48.688a161.31 161.31 0 0 1 161.31 161.31 161.31 161.31 0 0 1-161.31 161.31 161.31 161.31 0 0 1-161.31-161.31 161.31 161.31 0 0 1 161.31-161.31z"
     fill="#a8a8a8"
     stroke-width="1.4"
     id="path865" />
  <path
     d="m192.61 484.01a7.4991 5.8294 0 0 1 2.185 1.6216 4.9638 3.8587 0 0 1 0.80701 1.6985 5.0704 3.9415 0 0 1-0.27407 1.6867 9.2121 7.161 0 0 1-1.0126 1.5624l-0.0913 0.11244-13.262 8.1967a11.313 8.7945 0 0 1-2.7636 0.69242 15.516 12.061 0 0 1-3.1671 0.22489 13.643 10.605 0 0 1-3.1976-0.3255 8.9151 6.9302 0 0 1-2.8245-0.96467l-11.938-6.2082a5.4892 4.267 0 0 1-1.7511-1.4204 6.6007 5.1311 0 0 1-0.84506-1.7755 6.4256 4.995 0 0 1 0-1.8287 5.8546 4.5511 0 0 1 0.8603-1.6453l13.323-8.25a11.633 9.043 0 0 1 2.855-0.64508 16.924 13.156 0 0 1 3.2356-0.18347 14.701 11.428 0 0 1 3.19 0.31958 8.0929 6.2911 0 0 1 2.6646 0.88181zm-4.3091 5.1844a1.949 1.5151 0 0 0 0.67759-0.53857 2.0404 1.5861 0 0 0 0.19795-1.5624 4.6517 3.616 0 0 0-1.8424-1.5624l-8.9075-4.6399a6.8519 5.3264 0 0 0-1.5912-0.59182 6.791 5.279 0 0 0-1.7739-0.27223 6.0297 4.6872 0 0 0-1.7434 0.10653 4.0198 3.1248 0 0 0-1.4922 0.4912l-10.544 6.51-0.27408 0.22489-0.15988 0.15979a2.284 1.7755 0 0 0-0.19795 1.6808 4.0731 3.1662 0 0 0 1.6597 1.5979l8.9075 4.634a5.4206 4.2138 0 0 0 1.6445 0.5504 9.1359 7.1019 0 0 0 1.8957 0.21305 7.6133 5.9182 0 0 0 1.7587-0.10056 2.4439 1.8997 0 0 0 1.2334-0.43203zm33.338 15.103-0.0532 0.13021-0.4035 0.3255a0.35021 0.27224 0 0 1-0.3426 0.11245h-0.42634l-5.5501-1.3434a5.9536 4.628 0 0 0-1.7434-0.19531 7.9483 6.1786 0 0 0-1.8576 0.17162 6.753 5.2495 0 0 0-1.6521 0.47938 3.3803 2.6277 0 0 0-1.142 0.75162l-2.5505 2.8407-0.15225 0.28407a2.657 2.0655 0 0 0-0.099 0.80489 2.9007 2.2548 0 0 0 0.32737 0.87588 3.5706 2.7756 0 0 0 0.82223 0.78121 3.8066 2.9591 0 0 0 1.3704 0.56223l10.4 2.5212a1.1268 0.8759 0 0 0 0.55576 0 3.8066 2.9591 0 0 0 0.52532-0.10056l13.704-15.192a1.5227 1.1836 0 0 1 0.55576-0.36101 0.91359 0.71019 0 0 1 0.70804-0.0711l3.8066 0.92324c0.30453 0.0711 0.4035 0.24858 0.2893 0.52672-0.0609 0.15388-0.10658 0.23673-0.14466 0.24857l-16.11 17.826a1.8348 1.4263 0 0 1-0.70041 0.39653 1.142 0.88773 0 0 1-0.80701 0.0887l-17.282-4.1901a6.5322 5.0778 0 0 1-2.1698-0.91141 6.1439 4.776 0 0 1-1.5227-1.3671 5.6795 4.415 0 0 1-0.70041-1.6571 5.0324 3.9119 0 0 1 0.19033-1.7163l0.20556-0.41427 3.9132-4.3144a7.0347 5.4684 0 0 1 2.1622-1.5446 13.917 10.818 0 0 1 3.0453-1.0712 16.605 12.908 0 0 1 3.3727-0.54447 11.42 8.8773 0 0 1 3.0453 0.0473l-0.56338-6.2851a0.52532 0.40836 0 0 0 0-0.11836 0.5177 0.40244 0 0 1 0-0.11245l0.12942-0.21898a0.76133 0.59182 0 0 1 0.51771-0.2604l4.804 1.1836c0.41873 0.10067 0.61668 0.27815 0.60906 0.53855zm45.535 5.0009a0.76133 0.59182 0 0 0 0.57861-0.20122 2.3677 1.8406 0 0 0 0.41111-0.40836l1.6292-3.4562v-0.17164a0.60906 0.47346 0 0 0-0.0913-0.28998c-0.0685-0.0828-0.2208-0.12429-0.44919-0.1302l-15.432-0.52673a1.6521 1.2843 0 0 1-0.64712-0.11837c-0.19795-0.0769-0.29693-0.17162-0.28931-0.28407l1.2334-2.6573a1.043 0.8108 0 0 1 0.51771-0.31958 1.8196 1.4145 0 0 1 0.81462-0.10653l20.769 0.71019a0.60145 0.46754 0 0 1 0.48724 0.21897 1.0278 0.79896 0 0 1 0.17511 0.47938l-9.7069 20.471a1.8729 1.4559 0 0 1-0.54815 0.5208 1.1648 0.90549 0 0 1-0.76134 0.24858l-20.853-0.70428c-0.57861 0-0.8603-0.16572-0.84508-0.43795l1.2334-2.6218a0.76133 0.59182 0 0 1 0.51771-0.31959 1.9794 1.5387 0 0 1 0.76132-0.11244l15.432 0.5208a1.0735 0.83447 0 0 0 0.54816-0.10056 3.0453 2.3673 0 0 0 0.46441-0.20122l2.7636-5.8472a1.9414 1.5091 0 0 1 0.099-0.21897 0.76133 0.59182 0 0 0 0.0532-0.14796c0-0.18345-0.15987-0.27815-0.51008-0.28998l-15.607-0.52673a1.3475 1.0475 0 0 1-0.62429-0.13612c-0.18272-0.0887-0.26647-0.18347-0.25885-0.30182l1.2334-2.6218a1.3171 1.0239 0 0 1 1.279-0.43202zm30.651 8.9543a0.8603 0.66876 0 0 0-0.10658 0.26039v0.10056c0 0.0828 0.10658 0.11837 0.24363 0.0947l15.516-2.5744a1.3399 1.0416 0 0 1 0.6243 0c0.22078 0.0473 0.34259 0.12427 0.37303 0.23079l-0.33498 2.7816a0.76133 0.59182 0 0 1-0.37305 0.40836 1.8957 1.4736 0 0 1-0.76132 0.26631l-22.353 3.7581c-0.571 0.0947-0.89075 0-0.95927-0.25449l0.31975-2.8467a0.53293 0.41427 0 0 0 0.12943-0.23079 1.2029 0.93508 0 0 1 0.19794-0.34326l18.34-18.027v-0.23671c0-0.1302-0.19032-0.20714-0.44156-0.16572l-15.013 2.5212a1.4389 1.1185 0 0 1-0.62429 0c-0.21318-0.0296-0.3426-0.10653-0.37305-0.21305l0.32736-2.8171a1.0126 0.78712 0 0 1 0.3959-0.40836 1.8424 1.4322 0 0 1 0.76133-0.26631l22.353-3.7522q0.84507-0.14203 0.95927 0.24857l-0.2284 2.0773a1.7282 1.3434 0 0 1-0.35021 0.64509zm75.257-37.752c0.49486-0.31367 0.85268-0.36101 1.0659-0.14796l1.2562 2.6395a0.76133 0.59182 0 0 1-0.12942 0.5149 2.284 1.7755 0 0 1-0.50247 0.48528l-4.1721 2.5922a5.4968 4.273 0 0 0-1.3247 1.1836 8.5116 6.6166 0 0 0-0.7994 1.3375 6.3342 4.924 0 0 0-0.31975 1.2783 3.3575 2.6099 0 0 0 0.14465 1.012l1.6064 3.2314 0.15227 0.23082c0 0.0532 0.0381 0.0652 0 0.0473l0.24363 0.24265a2.284 1.7755 0 0 0 1.8805 0.66284 3.9817 3.0952 0 0 0 2.4895-0.78713l8.5116-5.285a1.1572 0.89957 0 0 0 0.32736-0.35509 3.8828 3.0183 0 0 0 0.18272-0.39652l-8.4964-17.346a1.4237 1.1067 0 0 1-0.0762-0.55631 0.95927 0.74569 0 0 1 0.31977-0.50305l3.1214-1.9352c0.25124-0.15389 0.48726-0.11837 0.72327 0.11244q0.19032 0.17754 0.18271 0.23081l9.981 20.359a1.812 1.4085 0 0 1 0 0.67468 1.1496 0.89365 0 0 1-0.35783 0.59183l-14.138 8.7767a6.3799 4.9595 0 0 1-2.2231 0.92324 5.9536 4.628 0 0 1-2.284 0.19531 5.7785 4.4919 0 0 1-2.1546-0.47346 5.0857 3.9534 0 0 1-1.7282-1.089l-0.31976-0.361-2.4058-4.9358a6.8519 5.3264 0 0 1-0.4568-2.4205 14.557 11.316 0 0 1 0.66236-2.7579 15.47 12.026 0 0 1 1.4694-2.5981 8.504 6.6106 0 0 1 1.9642-1.8702z"
     fill="#ff2d2c"
     stroke="#ff2d2c"
     stroke-miterlimit="10"
     stroke-width="3.3562"
     id="path867"
     style="fill:#b34aa9;fill-opacity:1;stroke:#b34aa9;stroke-opacity:1" />
  <path
     d="m256.72 40.838c1.605-0.64685 2.6203-2.0853 2.6203-3.7546 0-2.275-2.0108-4.3468-5.4359-4.3468h-16.167v12.637h7.8567v-4.0775h2.569l2.3668 4.0775h8.8133zm-6.6426-2.6026h-4.4828v-2.675l4.4828 0.01337a1.4957 1.3308 0 1 1 0 2.6616zm14.194 7.1385h17.326v-2.8233h-9.4701v-1.8597h9.4701v-3.047h-9.4701v-1.8597h9.4701v-3.0477h-17.326zm30.539-12.637h-7.8574v12.637h15.815v-2.8233h-7.9569zm18.517 0h-7.8561v12.637h15.814v-2.8233h-7.9582zm15.583-11.532h-122.79v24.112h13.598v-15.147l109.19 0.0023a5.0397 4.4842 0 1 0 6.6e-4 -8.9673zm-15.084 5.9098h-94.108v-2.8598l94.108 0.0079a1.6029 1.4262 0 1 1 0 2.8519zm-89.589 18.259h7.8567v-12.637h-7.8567zm100.32 0h7.8574v-12.637h-7.8574z"
     clip-rule="evenodd"
     fill="#ff2d2c"
     fill-rule="evenodd"
     stroke-width=".64448"
     id="path869"
     style="fill:#b34aa9;fill-opacity:1" />
  <ellipse
     cx="271.51"
     cy="271"
     rx="170.13"
     ry="167.62"
     fill="#fff"
     fill-rule="evenodd"
     stroke-width="1.1834"
     id="ellipse871" />
  <path
     d="m270.48 95.287a175 175 0 0 0-175 175 175 175 0 0 0 175 175 175 175 0 0 0 175-175 175 175 0 0 0-175-175zm-12.6 25.115v88.228a63 63 0 0 0-13.439 4.3778l-51.829-71.337a150.5 150.5 0 0 1 65.269-21.267zm25.2 0.0164a150.5 150.5 0 0 1 65.243 21.281l-51.797 71.291a63 63 0 0 0-13.445-4.4269v-88.145zm85.693 36.007a150.5 150.5 0 0 1 40.302 55.579l-83.86 27.248a63 63 0 0 0-8.3016-11.449l51.86-71.378zm-196.53 0.0875 51.806 71.305a63 63 0 0 0-8.3453 11.427l-83.948-27.278a150.5 150.5 0 0 1 40.488-55.453zm98.235 71.775a42 42 0 0 1 42 42 42 42 0 0 1-42 42 42 42 0 0 1-42-42 42 42 0 0 1 42-42zm-146.37 7.6891 83.808 27.231a63 63 0 0 0-0.43476 7.0793 63 63 0 0 0 0.47577 7.0657l-83.828 27.237a150.5 150.5 0 0 1-4.1481-34.303 150.5 150.5 0 0 1 4.1262-34.311zm292.73 6e-3a150.5 150.5 0 0 1 4.1481 34.306 150.5 150.5 0 0 1-4.1262 34.314l-83.808-27.231a63 63 0 0 0 0.43476-7.082 63 63 0 0 0-0.47577-7.0683l83.828-27.237zm-201.08 65.338a63 63 0 0 0 8.2961 11.441l-51.86 71.38a150.5 150.5 0 0 1-40.293-55.573l83.857-27.248zm109.51 0.014 83.951 27.278a150.5 150.5 0 0 1-40.485 55.45l-51.808-71.305a63 63 0 0 0 8.3426-11.424zm-28.729 26.233 51.829 71.337a150.5 150.5 0 0 1-65.272 21.267v-88.228a63 63 0 0 0 13.442-4.3778zm-52.101 0.0112a63 63 0 0 0 13.459 4.4324v88.145a150.5 150.5 0 0 1-65.253-21.287l51.794-71.291z"
     fill="#7f7f7f"
     stroke-width="1.4"
     id="path873" />
  <path
     d="m141.8 62.904c-24.844 21.38-49.686 42.759-68.931 67.054s-32.89 51.504-39.713 82.601c-6.8227 31.097-6.8227 66.08 2.0999 101.23s26.767 70.453 40.588 93.29 23.618 33.202 33.415 43.568"
     fill="none"
     stroke="#ff2d2c"
     stroke-width="15.094"
     id="path875"
     style="stroke:#b34aa9;stroke-opacity:1" />
  <path
     d="m395.58 63.525c25.257 21.576 50.513 43.15 70.078 67.667s33.437 51.975 40.373 83.356 6.9362 66.685-2.1349 102.15c-9.0711 35.467-27.212 71.097-41.263 94.143-14.051 23.046-24.011 33.506-33.971 43.966"
     fill="none"
     stroke="#ff2d2c"
     stroke-width="15.288"
     id="path877"
     style="stroke:#b34aa9;stroke-opacity:1" />
</svg>
