<?xml version="1.0" encoding="UTF-8"?>
<svg version="1.1" viewBox="0 0 540 540" xmlns="http://www.w3.org/2000/svg" xmlns:cc="http://creativecommons.org/ns#" xmlns:dc="http://purl.org/dc/elements/1.1/" xmlns:rdf="http://www.w3.org/1999/02/22-rdf-syntax-ns#">
 <metadata>
  <rdf:RDF>
   <cc:Work rdf:about="">
    <dc:format>image/svg+xml</dc:format>
    <dc:type rdf:resource="http://purl.org/dc/dcmitype/StillImage"/>
    <dc:title/>
   </cc:Work>
  </rdf:RDF>
 </metadata>
 <path d="m270 0a270 270 0 0 0-270 270 270 270 0 0 0 270 270 270 270 0 0 0 270-270 270 270 0 0 0-270-270zm0 154.78a115.22 115.22 0 0 1 115.22 115.22 115.22 115.22 0 0 1-115.22 115.22 115.22 115.22 0 0 1-115.22-115.22 115.22 115.22 0 0 1 115.22-115.22z" fill="#333"/>
 <path d="m270 120a150 150 0 0 0-150 150 150 150 0 0 0 150 150 150 150 0 0 0 150-150 150 150 0 0 0-150-150zm0 34.777a115.22 115.22 0 0 1 115.22 115.22 115.22 115.22 0 0 1-115.22 115.22 115.22 115.22 0 0 1-115.22-115.22 115.22 115.22 0 0 1 115.22-115.22z" fill="#a8a8a8"/>
 <path d="m270 145a125 125 0 0 0-125 125 125 125 0 0 0 125 125 125 125 0 0 0 125-125 125 125 0 0 0-125-125zm-9 17.939v63.02a45 45 0 0 0-9.5996 3.127l-37.021-50.955a107.5 107.5 0 0 1 46.621-15.191zm18 0.01172a107.5 107.5 0 0 1 46.602 15.201l-36.998 50.922a45 45 0 0 0-9.6035-3.1621v-62.961zm61.209 25.719a107.5 107.5 0 0 1 28.787 39.699l-59.9 19.463a45 45 0 0 0-5.9297-8.1777l37.043-50.984zm-140.38 0.0625 37.004 50.932a45 45 0 0 0-5.9609 8.1621l-59.963-19.484a107.5 107.5 0 0 1 28.92-39.609zm70.168 51.268a30 30 0 0 1 30 30 30 30 0 0 1-30 30 30 30 0 0 1-30-30 30 30 0 0 1 30-30zm-104.55 5.4922 59.863 19.451a45 45 0 0 0-0.31055 5.0566 45 45 0 0 0 0.33984 5.0469l-59.877 19.455a107.5 107.5 0 0 1-2.9629-24.502 107.5 107.5 0 0 1 2.9473-24.508zm209.09 0.0039a107.5 107.5 0 0 1 2.9629 24.504 107.5 107.5 0 0 1-2.9473 24.51l-59.863-19.451a45 45 0 0 0 0.31055-5.0586 45 45 0 0 0-0.33984-5.0488l59.877-19.455zm-143.63 46.67a45 45 0 0 0 5.9258 8.1719l-37.043 50.986a107.5 107.5 0 0 1-28.781-39.695l59.898-19.463zm78.221 0.00976 59.965 19.484a107.5 107.5 0 0 1-28.918 39.607l-37.006-50.932a45 45 0 0 0 5.959-8.1602zm-20.521 18.738 37.021 50.955a107.5 107.5 0 0 1-46.623 15.191v-63.02a45 45 0 0 0 9.6016-3.127zm-37.215 0.00782a45 45 0 0 0 9.6133 3.166v62.961a107.5 107.5 0 0 1-46.609-15.205l36.996-50.922z" fill="#7f7f7f"/>
 <path d="m251.81 89.829c2.4362-1.1035 3.9774-3.5574 3.9774-6.4053 0-3.881-3.0523-7.4155-8.2514-7.4155h-24.54v21.559h11.926v-6.9561h3.8996l3.5926 6.9561h13.378zm-10.083-4.44h-6.8046v-4.5634l6.8046 0.0228a2.2703 2.2703 0 1 1 0 4.5406zm21.545 12.178h26.3v-4.8165h-14.375v-3.1726h14.375v-5.1981h-14.375v-3.1726h14.375v-5.1992h-26.3zm46.356-21.559h-11.927v21.559h24.006v-4.8165h-12.078zm28.107 0h-11.925v21.559h24.004v-4.8165h-12.08zm23.654-19.673h-186.38v41.135h20.641v-25.841l165.74 4e-3a7.6499 7.6499 0 1 0 1e-3 -15.298zm-22.896 10.082h-142.85v-4.8787l142.85 0.0135a2.4331 2.4331 0 1 1 0 4.8652zm-135.99 31.15h11.926v-21.559h-11.926zm152.28 0h11.927v-21.559h-11.927zm-58.887 399.64-0.0469 0.28711c-0.0253 0.11387-0.075 0.2201-0.14063 0.3164l0.0176-0.21484c0.0338-0.13958 0.15515-0.2447 0.16992-0.38867zm-36.504-13.113c-8e-3 0.0183-0.0117 0.0382-0.0195 0.0566 4e-3 -9e-3 4e-3 -0.02 8e-3 -0.0293zm-11.396-22.787c-0.72424-0.0452-1.446 0.0879-2.1191 0.35742-0.76775 0.29069-1.4344 0.80548-1.8828 1.4941l-0.1582 0.24219-1.8438 5.1113-0.0195 0.36914c-0.0368 0.69959 0.25164 1.4753 0.63086 1.9512 0.37921 0.47587 0.78103 0.72255 1.1289 0.89648l0.0664 0.0312c0.57368 0.26566 1.1962 0.41336 1.8281 0.43164l17.879 0.78516-1.0762 2.9394-19.604-0.84179 0.26172 0.0254c-1.5923-0.23739-3.1944 0.45915-4.1074 1.7852l-0.17969 0.25977-1.8594 5.084-0.0176 0.37891c-0.059 1.1797 0.8853 2.3624 1.5117 2.7539l0.0449 0.0293 0.0449 0.0254c0.60378 0.34284 1.2826 0.53321 1.9766 0.55469l17.916 0.77734-2.4199 6.5859-19.611-0.85156h-0.043c-0.59713-6e-3 -1.1824 0.13282-1.7441 0.33203-0.95614 0.27213-1.7756 0.90869-2.2109 1.8086l-0.0527 0.11329-1.7969 4.9102-0.0176 0.38672c-0.04 0.92039 0.52968 2.1493 1.3418 2.709 0.81212 0.55971 1.5806 0.64063 2.2676 0.64063l27.379 1.1914 0.0976-4e-3c0.92848-0.0328 1.8035-0.40749 2.5-1.0176 0.57491-0.45975 1.0586-1.0246 1.3809-1.6875l0.0547-0.11133 12.93-35.076 0.0156-0.39453c0.0327-0.80681-0.20189-1.6001-0.64648-2.2734-0.58111-0.8952-1.5604-1.466-2.6289-1.5059zm148.06-6.3066 0.084 0.16211c7e-3 0.0152 0.0164 0.0835 0.0215 0.0937 0.0165 0.0329-0.0981-0.22786-0.0977-0.22657 1e-5 2e-5 -7e-3 -0.0261-8e-3 -0.0293zm-69.125-0.55078-29.314 6.3301c-0.70828 0.13938-1.3676 0.45066-1.9492 0.87696-0.6823 0.47601-1.2068 1.1495-1.4648 1.9414l-0.0879 0.26758-0.49023 5.4297 0.084 0.37891c0.30509 1.3729 1.598 2.0907 2.4453 2.2578 0.60982 0.12718 1.2391 0.13523 1.8476 0l14.242-3.0762-20.57 26.01-0.0332 0.0469c-0.20363 0.28287-0.29882 0.61975-0.42382 0.94336l-0.39649 0.45312-0.52343 5.9941 0.0762 0.36133c0.19201 0.9174 1.1072 1.969 2.002 2.2832s1.5921 0.21542 2.2266 0.0801l4e-3 -2e-3 29.334-6.3438c0.6729-0.13699 1.2943-0.44214 1.8555-0.83594 0.82311-0.52085 1.418-1.3419 1.5938-2.3047l0.0195-0.10742 0.48828-5.1992-0.0859-0.38476c-0.29096-1.3093-1.5336-2.0559-2.2656-2.2578l-0.041-0.0117-0.041-0.01c-0.65229-0.15625-1.3321-0.15625-1.9844 0l-14.58 3.1133 21.031-27.232c0.51891-0.66452 0.85273-1.4556 0.96679-2.291l0.01-0.0625 0.33789-3.9609-0.0859-0.37891c-0.20493-0.9017-1.1382-1.9523-2.0371-2.252-0.89892-0.29965-1.5767-0.18912-2.1894-0.0566zm-130.19-2.8887 2e-3 0.0117c0.0238 0.16867 0.0238 0.3411 0 0.50977l-2e-3 6e-3c4e-3 -0.17638 0.0256-0.35235 0-0.52735zm-1.4316-3.2012-0.58398 0.0937c-0.97374 0.15451-1.8409 0.71413-2.3809 1.5391l-0.10157 0.15625-0.40039 0.87305-0.0508 0.36133c-0.0183 0.12954 2e-3 0.26013 0 0.39062l-0.0371 0.25391 0.57031 8.1816c-0.5313 0.0116-1.0608-0.0913-1.5898-0.0312-1.6669 0.17007-3.3116 0.51115-4.9082 1.0195-1.5873 0.49893-3.108 1.187-4.5312 2.0488-1.4175 0.83848-2.6443 1.9656-3.5977 3.3086l-2e-3 4e-3 -5.3203 7.5449-0.40821 1.0586-0.0234 0.0723c-0.40839 1.2838-0.52152 2.6416-0.3418 3.9766 0.15902 1.3066 0.57086 2.5701 1.2207 3.7148l8e-3 0.016c0.66813 1.1585 1.5528 2.1763 2.6016 3.0059 1.0857 0.88423 2.3266 1.5574 3.6621 1.9785l4e-3 2e-3 22.797 7.1094 0.0957 0.0215c0.90159 0.20571 1.8372 0.0666 2.6621-0.34375 0.68056-0.29986 1.2998-0.72873 1.7812-1.2969l0.0723-0.0859 21.227-30.213-1.1172 0.88476c0.78623-0.31449 1.006-0.70715 1.1621-0.93164 0.15609-0.22448 0.22075-0.36783 0.27539-0.49023 0.10495-0.23509 0.153-0.39128 0.20508-0.56055v-4e-3c0.18493-0.5809 0.32095-1.408-0.0684-2.3164-0.38866-0.90686-1.2898-1.5152-1.9668-1.7207l-5.0176-1.5664-0.0351-0.01c-0.93229-0.26111-1.9249-0.12657-2.7715 0.33789-0.617 0.31758-1.1643 0.7589-1.5762 1.3184l-0.0156 0.0234-17.322 24.701-13.01-4.0586-0.0254-6e-3c-0.32575-0.0939-0.62836-0.25601-0.89062-0.4707-0.19261-0.16573-0.35379-0.36459-0.47852-0.58594-0.0778-0.15287-0.12901-0.31911-0.14257-0.49023l-2e-3 -0.0274-2e-3 -0.0293c-0.0118-0.11531 5e-3 -0.22967 0.0332-0.34179l0.0137-0.0332 3.1484-4.5117c0.17369-0.22909 0.39526-0.41816 0.65039-0.55079l0.01-4e-3 0.01-6e-3c0.49181-0.26119 1.0159-0.45708 1.5586-0.58203l0.0117-2e-3 0.0117-4e-3c0.60773-0.14631 1.2304-0.22049 1.8555-0.2207h0.014c0.52756-3e-3 1.0513 0.0729 1.5566 0.2246l7.6289 2.377h0.94141l-0.40039-0.0332c1.1142 0.18004 2.2484-0.29854 2.8965-1.2226l-0.24609 0.29883 0.93359-0.96875 0.39453-1.2383-0.0351-0.48243-1.2012-16.17 6e-3 0.24219c0.0165-0.72495-0.26705-1.6416-0.8086-2.2598-0.54154-0.61818-1.1867-0.921-1.752-1.0957zm-53.23-16.873h0.014c0.57126 0.0351 1.136 0.14741 1.6777 0.33203l0.0137 4e-3 0.0137 6e-3c0.52939 0.17379 1.0341 0.41426 1.502 0.7168 2e-3 2e-3 5e-3 2e-3 8e-3 4e-3l11.729 7.8613 0.0645 0.0371c0.60971 0.3584 1.091 0.89497 1.4023 1.5293 0.0152 0.0524 0.0177 0.10334-0.0156 0.15039l-0.0684 0.0957-0.0586 0.0996c-5e-3 9e-3 -0.0108 0.0162-0.0195 0.0215l-0.13086 0.0801-0.12109 0.0957-13.895 10.957-0.0352 0.0293c-0.102 0.0866-0.22499 0.14305-0.35742 0.16211l-0.0586 8e-3 -0.0566 0.0117c-0.57061 0.10946-1.1519 0.1517-1.7324 0.12695h-0.01c-0.66526-0.0257-1.3274-0.12135-1.9727-0.28516l-0.01-2e-3 -0.01-4e-3c-0.49743-0.12207-0.96987-0.32605-1.4004-0.60351l-11.693-7.8262-0.0312-0.0176c-0.53651-0.33731-0.94348-0.84392-1.1602-1.4394l-0.0234-0.0645-0.0273-0.0625c-0.0652-0.15258-0.0458-0.31893 0.041-0.45898l0.0293-0.0371 0.1543-0.16406 13.594-10.797c0.30644-0.2078 0.65049-0.35696 1.0137-0.42969l0.0312-6e-3 0.0332-8e-3c0.51363-0.117 1.0408-0.15836 1.5664-0.12304zm-0.19531-10.854c-1.5697-0.0356-3.1394 0.0799-4.6875 0.3418-1.5006 0.2346-2.965 0.65877-4.3574 1.2656l-0.30274 0.13086-18.068 14.393-0.21875 0.33398c-0.73617 1.1177-1.2457 2.3693-1.498 3.6836v6e-3l-2e-3 8e-3c-0.24515 1.3166-0.24252 2.6655 0 3.9824 0.23368 1.3585 0.71371 2.663 1.4219 3.8457 7.5e-4 1e-3 1e-3 3e-3 2e-3 4e-3 0.76483 1.2944 1.8199 2.3937 3.082 3.2109 2e-3 1e-3 2e-3 3e-3 4e-3 4e-3l15.65 10.469 2e-3 2e-3c1.3714 0.91398 2.8918 1.5816 4.4922 1.9746 1.5613 0.39549 3.1629 0.60608 4.7734 0.625h2e-3c1.564 0.0181 3.1252-0.12722 4.6602-0.42774 1.4606-0.27195 2.8807-0.72783 4.2246-1.3613l0.26171-0.12304 17.979-14.295 0.3125-0.49414c0.66311-0.99223 1.2008-2.0621 1.6035-3.1855l2e-3 -2e-3c0.44821-1.255 0.6162-2.5929 0.49414-3.9199l-2e-3 -0.0312-4e-3 -0.0312c-0.16697-1.421-0.67003-2.7823-1.4668-3.9707l-0.01-0.0156-0.0117-0.0156c-0.954-1.3774-2.1776-2.5464-3.5977-3.4356l0.0645 0.041-15.779-10.564-8e-3 -6e-3c-1.3157-0.86647-2.7763-1.487-4.3125-1.8359-1.5406-0.37133-3.1167-0.57577-4.7012-0.60547zm266.43-9.6387 0.15235 0.40039c-0.0623-0.0573-0.096-0.19875-0.15235-0.40039zm2.2051-3.834c-0.97386-0.19322-1.9802 0.21531-2.5176 0.63868l-6e-3 4e-3 -4.1562 3.3164-0.0508 0.043c-0.70269 0.62398-1.1255 1.4956-1.2226 2.4277-0.094 0.71417-0.0305 1.4426 0.22461 2.1172l2e-3 2e-3 10.727 28.172-10.695 8.541-0.0527 0.0488c-0.47168 0.42258-1.0743 0.66674-1.707 0.69336h-2e-3c-0.16144 7e-3 -0.311-0.0595-0.41211-0.18555l-0.0332-0.041-0.15235-0.29883-2.0137-5.2129c-0.0709-0.23289-0.10092-0.47801-0.0801-0.72071l2e-3 -0.0312 2e-3 -0.0332c0.0306-0.51444 0.13052-1.0233 0.29492-1.5117v-2e-3c0.2055-0.61343 0.48013-1.2032 0.81641-1.7559l0.01-0.0156 0.01-0.0176c0.29523-0.50232 0.68008-0.94474 1.1367-1.3066l4e-3 -4e-3 5.5254-4.416 0.041-0.0352c0.43031-0.37494 0.76973-0.8346 1.0644-1.3223 0.59099-0.84774 0.80828-1.9086 0.53516-2.9102l-0.0293-0.10547-1.8223-4.9258-0.23828-0.30469c-0.61128-0.78593-2.033-1.3018-2.9688-1.1367-0.93389 0.1648-1.4754 0.56875-1.9805 0.98047-1e-3 8.1e-4 -3e-3 1e-3 -4e-3 2e-3l-7.3711 5.9297-0.0234 0.0215c-1.2731 1.0777-2.3342 2.3828-3.1387 3.8438-0.89991 1.5348-1.6205 3.1677-2.1406 4.8691-0.53954 1.6953-0.86512 3.4509-0.97461 5.2266-0.14654 1.7656 0.11267 3.5422 0.76563 5.1894l3.252 8.5879 0.63867 0.92578 0.0527 0.0664c0.83899 1.0609 1.9022 1.9213 3.1133 2.5234 1.167 0.59076 2.4384 0.95092 3.7422 1.0566 1.3269 0.11155 2.6643-0.0375 3.9355-0.4336 1.381-0.41668 2.6663-1.1018 3.7793-2.0195l18.621-14.869 0.0742-0.0723c0.66853-0.63142 1.0593-1.4845 1.1816-2.3906 0.14963-0.71553 0.17542-1.4549 0-2.166l-0.0371-0.14843-13.088-34.346c-0.0984-0.38377-0.24745-0.61281-0.33789-0.75976-0.13765-0.22368-0.25148-0.36178-0.37109-0.50586-0.36949-0.46162-0.95908-1.0312-1.9238-1.2227zm-271.41-319.82a225 225 0 0 0-94.113 182.67 225 225 0 0 0 38.65 125.74l16.982-10.59a205 205 0 0 1-35.633-115.15 205 205 0 0 1 84.719-165.69zm261.76-0.127-10.629 17.012a205 205 0 0 1 84.76 165.78 205 205 0 0 1-34.215 113.16l15.842 12.377a225 225 0 0 0 38.373-125.53 225 225 0 0 0-94.131-182.79z" clip-rule="evenodd" fill="#ffd318" fill-rule="evenodd" stroke-width="1.0371"/>
</svg>
